<svg xmlns="http://www.w3.org/2000/svg" viewBox="0 0 512 512"><!--!Font Awesome Free 6.6.0 by @fontawesome - https://fontawesome.com License - https://fontawesome.com/license/free Copyright 2024 Fonticons, Inc.--><path fill="#6195ff" d="M272 240a16 16 0 1 0 16 16A16 16 0 0 0 272 240zm-64-64a16 16 0 1 0 16 16A16 16 0 0 0 208 176zm301.2 99c-20.9-47.1-48.4-151.7-73.1-186.8A207.9 207.9 0 0 0 266.1 0H192C86 0 0 86 0 192A191.2 191.2 0 0 0 64 334.8V512H320V448h64a64 64 0 0 0 64-64V320H480A32 32 0 0 0 509.2 275zM368 240H355.9c-28.5 0-42.8 34.5-22.6 54.6l8.6 8.6a16 16 0 1 1 -22.6 22.6l-8.6-8.6C290.5 297.1 256 311.4 256 339.9V352a16 16 0 0 1 -32 0V339.9c0-28.5-34.5-42.8-54.6-22.6l-8.6 8.6a16 16 0 0 1 -22.6-22.6l8.6-8.6c20.2-20.2 5.9-54.6-22.6-54.6H112a16 16 0 0 1 0-32h12.1c28.5 0 42.8-34.5 22.6-54.6l-8.6-8.6a16 16 0 0 1 22.6-22.6l8.6 8.6c20.2 20.2 54.6 5.9 54.6-22.6V96a16 16 0 0 1 32 0v12.1c0 28.5 34.5 42.8 54.6 22.6l8.6-8.6a16 16 0 0 1 22.6 22.6l-8.6 8.6C313.1 173.5 327.4 208 355.9 208H368a16 16 0 0 1 0 32z"/></svg>